<svg xmlns="http://www.w3.org/2000/svg" xmlns:xlink="http://www.w3.org/1999/xlink" version="1.1" x="0px" y="0px" viewBox="0 0 119.7 297.25" style="enable-background:new 0 0 119.7 237.8;" xml:space="preserve"><style type="text/css">
	.st0{fill:none;stroke:#000000;stroke-width:3;stroke-linecap:round;stroke-linejoin:round;}
	.st1{fill:none;stroke:#000000;stroke-linecap:round;stroke-linejoin:round;}
</style><g transform="matrix( 1, 0, 0, 1, 846.2,-1142.85) "><g transform="matrix( 1, 0, 0, 1, 0,0) "><g><path class="st0" d="M-790.8,1181.2v-36.8h8.8v36.8h18.8v9.2h-46v-9.2H-790.8h8.8 M-819.9,1292.3h-9.1     l-15.7,85.2l8.8,1.6L-819.9,1292.3h67h9.2h7.3v-5.3 M-835.9,1287v5.3h6.9 M-835.9,1287v-3.9h5.5v-91.4h88v91.4h6v3.9      M-743.7,1292.3l15.7,85.2l-8.9,1.6l-16-86.8 M-830.4,1283.2h88"/></g><g><path class="st1" d="M-736.4,1287h-99.5"/></g></g></g><!--<text x="0" y="252.8" fill="#000000" font-size="5px" font-weight="bold" font-family="'Helvetica Neue', Helvetica, Arial-Unicode, Arial, Sans-serif">Created by Nicholas Frawley</text><text x="0" y="257.8" fill="#000000" font-size="5px" font-weight="bold" font-family="'Helvetica Neue', Helvetica, Arial-Unicode, Arial, Sans-serif">from the Noun Project</text>--></svg>
